<?xml version="1.0" standalone="no"?>
<!DOCTYPE svg PUBLIC "-//W3C//DTD SVG 20010904//EN"
 "http://www.w3.org/TR/2001/REC-SVG-20010904/DTD/svg10.dtd">
<svg version="1.0" xmlns="http://www.w3.org/2000/svg"
 width="501.000000pt" height="501.000000pt" viewBox="0 0 501.000000 501.000000"
 preserveAspectRatio="xMidYMid meet">
<metadata>
Created by potrace 1.14, written by Peter Selinger 2001-2017
</metadata>
<g transform="translate(0.000000,501.000000) scale(0.100000,-0.100000)"
fill="#000000" stroke="none">
<path d="M2367 5004 c-1 -1 -38 -4 -82 -8 -44 -3 -109 -11 -145 -17 -36 -6
-77 -12 -93 -14 -60 -8 -247 -58 -344 -90 -162 -56 -313 -125 -475 -217 -22
-13 -205 -135 -223 -150 -170 -135 -324 -281 -420 -399 -69 -85 -97 -122 -142
-189 -260 -388 -392 -760 -432 -1222 -8 -96 -6 -339 3 -433 7 -63 37 -251 50
-315 50 -236 191 -572 332 -791 47 -73 139 -203 159 -225 5 -7 30 -36 55 -65
386 -454 936 -753 1550 -845 126 -18 430 -24 587 -11 388 32 807 182 1148 410
173 116 401 317 502 442 129 160 200 262 270 380 148 253 281 629 308 870 4
33 9 63 11 66 7 12 18 221 18 339 -1 194 -9 271 -50 495 -48 266 -194 615
-364 872 -40 59 -75 110 -79 113 -3 3 -19 23 -35 45 -31 42 -126 151 -193 220
-105 109 -303 267 -463 369 -80 51 -326 175 -400 201 -175 62 -328 106 -450
128 -157 29 -271 39 -453 41 -81 1 -149 1 -150 0z"/>
</g>
</svg>
